<svg xmlns="http://www.w3.org/2000/svg" xmlns:xlink="http://www.w3.org/1999/xlink" width="500" zoomAndPan="magnify" viewBox="0 0 375 374.999991" height="500" preserveAspectRatio="xMidYMid meet" version="1.0"><defs><g/></defs><g fill="#272626" fill-opacity="1"><g transform="translate(64.536214, 194.999987)"><g><path d="M 9.578125 -9.53125 C 10.023438 -9.394531 10.503906 -9.226562 11.015625 -9.03125 C 11.535156 -8.84375 12.019531 -8.585938 12.46875 -8.265625 C 12.914062 -7.941406 13.285156 -7.503906 13.578125 -6.953125 C 13.867188 -6.410156 14.015625 -5.710938 14.015625 -4.859375 C 14.015625 -3.679688 13.726562 -2.703125 13.15625 -1.921875 C 12.582031 -1.148438 11.796875 -0.570312 10.796875 -0.1875 C 9.796875 0.1875 8.65625 0.375 7.375 0.375 C 6.59375 0.375 5.804688 0.257812 5.015625 0.03125 C 4.234375 -0.1875 3.515625 -0.515625 2.859375 -0.953125 C 2.203125 -1.398438 1.671875 -1.953125 1.265625 -2.609375 C 0.867188 -3.273438 0.671875 -4.039062 0.671875 -4.90625 C 0.671875 -5.195312 0.71875 -5.382812 0.8125 -5.46875 C 0.914062 -5.5625 1.109375 -5.609375 1.390625 -5.609375 L 3.8125 -5.609375 C 4.09375 -5.609375 4.304688 -5.570312 4.453125 -5.5 C 4.609375 -5.425781 4.695312 -5.226562 4.71875 -4.90625 C 4.726562 -4.738281 4.765625 -4.570312 4.828125 -4.40625 C 4.898438 -4.25 5.019531 -4.078125 5.1875 -3.890625 C 5.4375 -3.585938 5.789062 -3.375 6.25 -3.25 C 6.707031 -3.125 7.164062 -3.0625 7.625 -3.0625 C 8.3125 -3.0625 8.890625 -3.171875 9.359375 -3.390625 C 9.835938 -3.609375 10.078125 -4.066406 10.078125 -4.765625 C 10.078125 -5.234375 9.859375 -5.570312 9.421875 -5.78125 C 8.992188 -6 8.453125 -6.175781 7.796875 -6.3125 C 7.140625 -6.457031 6.453125 -6.640625 5.734375 -6.859375 C 4.898438 -7.117188 4.113281 -7.429688 3.375 -7.796875 C 2.632812 -8.171875 2.035156 -8.671875 1.578125 -9.296875 C 1.117188 -9.929688 0.890625 -10.773438 0.890625 -11.828125 C 0.890625 -12.898438 1.175781 -13.796875 1.75 -14.515625 C 2.332031 -15.242188 3.085938 -15.796875 4.015625 -16.171875 C 4.941406 -16.546875 5.921875 -16.75 6.953125 -16.78125 C 7.753906 -16.78125 8.546875 -16.6875 9.328125 -16.5 C 10.109375 -16.320312 10.816406 -16.035156 11.453125 -15.640625 C 12.097656 -15.253906 12.613281 -14.765625 13 -14.171875 C 13.394531 -13.585938 13.59375 -12.878906 13.59375 -12.046875 C 13.59375 -11.742188 13.539062 -11.550781 13.4375 -11.46875 C 13.34375 -11.382812 13.15625 -11.34375 12.875 -11.34375 L 10.421875 -11.34375 C 10.191406 -11.34375 10.035156 -11.410156 9.953125 -11.546875 C 9.878906 -11.691406 9.8125 -11.847656 9.75 -12.015625 C 9.695312 -12.148438 9.632812 -12.269531 9.5625 -12.375 C 9.488281 -12.488281 9.378906 -12.617188 9.234375 -12.765625 C 8.992188 -12.992188 8.675781 -13.160156 8.28125 -13.265625 C 7.882812 -13.378906 7.492188 -13.4375 7.109375 -13.4375 C 6.835938 -13.4375 6.523438 -13.394531 6.171875 -13.3125 C 5.828125 -13.226562 5.53125 -13.082031 5.28125 -12.875 C 5.03125 -12.664062 4.90625 -12.375 4.90625 -12 C 4.90625 -11.613281 5.097656 -11.285156 5.484375 -11.015625 C 5.867188 -10.753906 6.332031 -10.523438 6.875 -10.328125 C 7.414062 -10.140625 7.9375 -9.984375 8.4375 -9.859375 C 8.945312 -9.734375 9.328125 -9.625 9.578125 -9.53125 Z M 9.578125 -9.53125 "/></g></g></g><g fill="#272626" fill-opacity="1"><g transform="translate(83.514474, 194.999987)"><g><path d="M 8.984375 -3.421875 C 9.265625 -3.421875 9.453125 -3.359375 9.546875 -3.234375 C 9.648438 -3.109375 9.703125 -2.925781 9.703125 -2.6875 L 9.703125 -0.71875 C 9.703125 -0.507812 9.648438 -0.335938 9.546875 -0.203125 C 9.453125 -0.0664062 9.265625 0 8.984375 0 L 1.921875 0 C 1.640625 0 1.445312 -0.0664062 1.34375 -0.203125 C 1.25 -0.335938 1.203125 -0.507812 1.203125 -0.71875 L 1.203125 -2.6875 C 1.203125 -2.925781 1.25 -3.109375 1.34375 -3.234375 C 1.445312 -3.359375 1.640625 -3.421875 1.921875 -3.421875 L 3.484375 -3.421875 L 3.484375 -12.9375 L 1.96875 -12.9375 C 1.6875 -12.9375 1.492188 -13.003906 1.390625 -13.140625 C 1.296875 -13.273438 1.25 -13.453125 1.25 -13.671875 L 1.25 -15.6875 C 1.25 -15.914062 1.296875 -16.09375 1.390625 -16.21875 C 1.492188 -16.34375 1.6875 -16.40625 1.96875 -16.40625 L 8.90625 -16.40625 C 9.1875 -16.40625 9.375 -16.34375 9.46875 -16.21875 C 9.570312 -16.09375 9.625 -15.914062 9.625 -15.6875 L 9.625 -13.671875 C 9.625 -13.453125 9.570312 -13.273438 9.46875 -13.140625 C 9.375 -13.003906 9.1875 -12.9375 8.90625 -12.9375 L 7.40625 -12.9375 L 7.40625 -3.421875 Z M 8.984375 -3.421875 "/></g></g></g><g fill="#272626" fill-opacity="1"><g transform="translate(98.477792, 194.999987)"><g><path d="M 14.4375 -16.40625 C 14.664062 -16.40625 14.84375 -16.351562 14.96875 -16.25 C 15.09375 -16.15625 15.15625 -15.96875 15.15625 -15.6875 L 15.15625 -0.71875 C 15.15625 -0.507812 15.101562 -0.335938 15 -0.203125 C 14.90625 -0.0664062 14.71875 0 14.4375 0 L 12.171875 0 C 11.859375 0 11.632812 -0.078125 11.5 -0.234375 C 11.363281 -0.390625 11.210938 -0.59375 11.046875 -0.84375 L 5.765625 -9.40625 L 5.765625 -0.71875 C 5.765625 -0.4375 5.703125 -0.242188 5.578125 -0.140625 C 5.453125 -0.046875 5.269531 0 5.03125 0 L 2.5625 0 C 2.351562 0 2.179688 -0.046875 2.046875 -0.140625 C 1.910156 -0.242188 1.84375 -0.4375 1.84375 -0.71875 L 1.84375 -15.6875 C 1.84375 -15.914062 1.890625 -16.09375 1.984375 -16.21875 C 2.085938 -16.34375 2.28125 -16.40625 2.5625 -16.40625 L 4.90625 -16.40625 C 5.226562 -16.40625 5.453125 -16.328125 5.578125 -16.171875 C 5.710938 -16.015625 5.863281 -15.8125 6.03125 -15.5625 L 11.328125 -7.03125 L 11.328125 -15.6875 C 11.328125 -15.96875 11.390625 -16.15625 11.515625 -16.25 C 11.648438 -16.351562 11.828125 -16.40625 12.046875 -16.40625 Z M 14.4375 -16.40625 "/></g></g></g><g fill="#272626" fill-opacity="1"><g transform="translate(119.376241, 194.999987)"><g><path d="M 14.046875 -9.15625 C 14.328125 -9.15625 14.515625 -9.09375 14.609375 -8.96875 C 14.710938 -8.84375 14.765625 -8.660156 14.765625 -8.421875 L 14.765625 -4.8125 C 14.710938 -3.914062 14.46875 -3.140625 14.03125 -2.484375 C 13.601562 -1.828125 13.054688 -1.289062 12.390625 -0.875 C 11.722656 -0.457031 11.007812 -0.144531 10.25 0.0625 C 9.5 0.269531 8.769531 0.375 8.0625 0.375 C 7.320312 0.375 6.5625 0.273438 5.78125 0.078125 C 5 -0.117188 4.269531 -0.429688 3.59375 -0.859375 C 2.925781 -1.285156 2.382812 -1.84375 1.96875 -2.53125 C 1.550781 -3.21875 1.34375 -4.050781 1.34375 -5.03125 L 1.34375 -11.171875 C 1.34375 -12.148438 1.550781 -12.992188 1.96875 -13.703125 C 2.382812 -14.421875 2.925781 -15.003906 3.59375 -15.453125 C 4.269531 -15.910156 5 -16.242188 5.78125 -16.453125 C 6.5625 -16.671875 7.320312 -16.78125 8.0625 -16.78125 C 8.84375 -16.78125 9.625 -16.664062 10.40625 -16.4375 C 11.195312 -16.21875 11.921875 -15.890625 12.578125 -15.453125 C 13.234375 -15.023438 13.757812 -14.488281 14.15625 -13.84375 C 14.5625 -13.207031 14.765625 -12.472656 14.765625 -11.640625 C 14.765625 -11.347656 14.710938 -11.160156 14.609375 -11.078125 C 14.515625 -10.992188 14.328125 -10.953125 14.046875 -10.953125 L 11.625 -10.953125 C 11.269531 -10.953125 11.078125 -11.050781 11.046875 -11.25 C 11.015625 -11.445312 10.960938 -11.628906 10.890625 -11.796875 C 10.765625 -12.179688 10.46875 -12.53125 10 -12.84375 C 9.53125 -13.15625 8.882812 -13.3125 8.0625 -13.3125 C 7.238281 -13.3125 6.570312 -13.0625 6.0625 -12.5625 C 5.5625 -12.070312 5.3125 -11.425781 5.3125 -10.625 L 5.3125 -5.609375 C 5.3125 -4.804688 5.5625 -4.1875 6.0625 -3.75 C 6.570312 -3.3125 7.238281 -3.09375 8.0625 -3.09375 C 8.875 -3.09375 9.535156 -3.296875 10.046875 -3.703125 C 10.566406 -4.109375 10.828125 -4.796875 10.828125 -5.765625 L 8.578125 -5.765625 C 8.296875 -5.765625 8.101562 -5.828125 8 -5.953125 C 7.90625 -6.085938 7.859375 -6.265625 7.859375 -6.484375 L 7.859375 -8.421875 C 7.859375 -8.660156 7.90625 -8.84375 8 -8.96875 C 8.101562 -9.09375 8.296875 -9.15625 8.578125 -9.15625 Z M 14.046875 -9.15625 "/></g></g></g><g fill="#272626" fill-opacity="1"><g transform="translate(139.376942, 194.999987)"><g><path d="M 12.9375 -3.484375 C 13.21875 -3.484375 13.410156 -3.421875 13.515625 -3.296875 C 13.617188 -3.171875 13.671875 -2.992188 13.671875 -2.765625 L 13.671875 -0.71875 C 13.671875 -0.507812 13.617188 -0.335938 13.515625 -0.203125 C 13.410156 -0.0664062 13.21875 0 12.9375 0 L 2.5625 0 C 2.28125 0 2.085938 -0.0664062 1.984375 -0.203125 C 1.890625 -0.335938 1.84375 -0.507812 1.84375 -0.71875 L 1.84375 -15.6875 C 1.84375 -15.96875 1.910156 -16.15625 2.046875 -16.25 C 2.179688 -16.351562 2.351562 -16.40625 2.5625 -16.40625 L 5.03125 -16.40625 C 5.269531 -16.40625 5.453125 -16.351562 5.578125 -16.25 C 5.703125 -16.15625 5.765625 -15.96875 5.765625 -15.6875 L 5.765625 -3.484375 Z M 12.9375 -3.484375 "/></g></g></g><g fill="#272626" fill-opacity="1"><g transform="translate(157.781639, 194.999987)"><g><path d="M 13.734375 -3.484375 C 14.023438 -3.484375 14.21875 -3.421875 14.3125 -3.296875 C 14.414062 -3.171875 14.46875 -2.992188 14.46875 -2.765625 L 14.46875 -0.71875 C 14.46875 -0.507812 14.414062 -0.335938 14.3125 -0.203125 C 14.21875 -0.0664062 14.023438 0 13.734375 0 L 2.5625 0 C 2.28125 0 2.085938 -0.0664062 1.984375 -0.203125 C 1.890625 -0.335938 1.84375 -0.507812 1.84375 -0.71875 L 1.84375 -15.6875 C 1.84375 -15.914062 1.890625 -16.09375 1.984375 -16.21875 C 2.085938 -16.34375 2.28125 -16.40625 2.5625 -16.40625 L 13.3125 -16.40625 C 13.59375 -16.40625 13.785156 -16.34375 13.890625 -16.21875 C 13.992188 -16.09375 14.046875 -15.914062 14.046875 -15.6875 L 14.046875 -13.609375 C 14.046875 -13.398438 13.992188 -13.226562 13.890625 -13.09375 C 13.785156 -12.957031 13.59375 -12.890625 13.3125 -12.890625 L 5.78125 -12.890625 L 5.78125 -10.171875 L 12.46875 -10.171875 C 12.75 -10.171875 12.9375 -10.109375 13.03125 -9.984375 C 13.132812 -9.859375 13.1875 -9.679688 13.1875 -9.453125 L 13.1875 -7.5 C 13.1875 -7.289062 13.132812 -7.117188 13.03125 -6.984375 C 12.9375 -6.847656 12.75 -6.78125 12.46875 -6.78125 L 5.78125 -6.78125 L 5.78125 -3.484375 Z M 13.734375 -3.484375 "/></g></g></g><g fill="#272626" fill-opacity="1"><g transform="translate(187.957647, 194.999987)"><g><path d="M 9.578125 -9.53125 C 10.023438 -9.394531 10.503906 -9.226562 11.015625 -9.03125 C 11.535156 -8.84375 12.019531 -8.585938 12.46875 -8.265625 C 12.914062 -7.941406 13.285156 -7.503906 13.578125 -6.953125 C 13.867188 -6.410156 14.015625 -5.710938 14.015625 -4.859375 C 14.015625 -3.679688 13.726562 -2.703125 13.15625 -1.921875 C 12.582031 -1.148438 11.796875 -0.570312 10.796875 -0.1875 C 9.796875 0.1875 8.65625 0.375 7.375 0.375 C 6.59375 0.375 5.804688 0.257812 5.015625 0.03125 C 4.234375 -0.1875 3.515625 -0.515625 2.859375 -0.953125 C 2.203125 -1.398438 1.671875 -1.953125 1.265625 -2.609375 C 0.867188 -3.273438 0.671875 -4.039062 0.671875 -4.90625 C 0.671875 -5.195312 0.71875 -5.382812 0.8125 -5.46875 C 0.914062 -5.5625 1.109375 -5.609375 1.390625 -5.609375 L 3.8125 -5.609375 C 4.09375 -5.609375 4.304688 -5.570312 4.453125 -5.5 C 4.609375 -5.425781 4.695312 -5.226562 4.71875 -4.90625 C 4.726562 -4.738281 4.765625 -4.570312 4.828125 -4.40625 C 4.898438 -4.25 5.019531 -4.078125 5.1875 -3.890625 C 5.4375 -3.585938 5.789062 -3.375 6.25 -3.25 C 6.707031 -3.125 7.164062 -3.0625 7.625 -3.0625 C 8.3125 -3.0625 8.890625 -3.171875 9.359375 -3.390625 C 9.835938 -3.609375 10.078125 -4.066406 10.078125 -4.765625 C 10.078125 -5.234375 9.859375 -5.570312 9.421875 -5.78125 C 8.992188 -6 8.453125 -6.175781 7.796875 -6.3125 C 7.140625 -6.457031 6.453125 -6.640625 5.734375 -6.859375 C 4.898438 -7.117188 4.113281 -7.429688 3.375 -7.796875 C 2.632812 -8.171875 2.035156 -8.671875 1.578125 -9.296875 C 1.117188 -9.929688 0.890625 -10.773438 0.890625 -11.828125 C 0.890625 -12.898438 1.175781 -13.796875 1.75 -14.515625 C 2.332031 -15.242188 3.085938 -15.796875 4.015625 -16.171875 C 4.941406 -16.546875 5.921875 -16.75 6.953125 -16.78125 C 7.753906 -16.78125 8.546875 -16.6875 9.328125 -16.5 C 10.109375 -16.320312 10.816406 -16.035156 11.453125 -15.640625 C 12.097656 -15.253906 12.613281 -14.765625 13 -14.171875 C 13.394531 -13.585938 13.59375 -12.878906 13.59375 -12.046875 C 13.59375 -11.742188 13.539062 -11.550781 13.4375 -11.46875 C 13.34375 -11.382812 13.15625 -11.34375 12.875 -11.34375 L 10.421875 -11.34375 C 10.191406 -11.34375 10.035156 -11.410156 9.953125 -11.546875 C 9.878906 -11.691406 9.8125 -11.847656 9.75 -12.015625 C 9.695312 -12.148438 9.632812 -12.269531 9.5625 -12.375 C 9.488281 -12.488281 9.378906 -12.617188 9.234375 -12.765625 C 8.992188 -12.992188 8.675781 -13.160156 8.28125 -13.265625 C 7.882812 -13.378906 7.492188 -13.4375 7.109375 -13.4375 C 6.835938 -13.4375 6.523438 -13.394531 6.171875 -13.3125 C 5.828125 -13.226562 5.53125 -13.082031 5.28125 -12.875 C 5.03125 -12.664062 4.90625 -12.375 4.90625 -12 C 4.90625 -11.613281 5.097656 -11.285156 5.484375 -11.015625 C 5.867188 -10.753906 6.332031 -10.523438 6.875 -10.328125 C 7.414062 -10.140625 7.9375 -9.984375 8.4375 -9.859375 C 8.945312 -9.734375 9.328125 -9.625 9.578125 -9.53125 Z M 9.578125 -9.53125 "/></g></g></g><g fill="#272626" fill-opacity="1"><g transform="translate(206.93591, 194.999987)"><g><path d="M 8.984375 -3.421875 C 9.265625 -3.421875 9.453125 -3.359375 9.546875 -3.234375 C 9.648438 -3.109375 9.703125 -2.925781 9.703125 -2.6875 L 9.703125 -0.71875 C 9.703125 -0.507812 9.648438 -0.335938 9.546875 -0.203125 C 9.453125 -0.0664062 9.265625 0 8.984375 0 L 1.921875 0 C 1.640625 0 1.445312 -0.0664062 1.34375 -0.203125 C 1.25 -0.335938 1.203125 -0.507812 1.203125 -0.71875 L 1.203125 -2.6875 C 1.203125 -2.925781 1.25 -3.109375 1.34375 -3.234375 C 1.445312 -3.359375 1.640625 -3.421875 1.921875 -3.421875 L 3.484375 -3.421875 L 3.484375 -12.9375 L 1.96875 -12.9375 C 1.6875 -12.9375 1.492188 -13.003906 1.390625 -13.140625 C 1.296875 -13.273438 1.25 -13.453125 1.25 -13.671875 L 1.25 -15.6875 C 1.25 -15.914062 1.296875 -16.09375 1.390625 -16.21875 C 1.492188 -16.34375 1.6875 -16.40625 1.96875 -16.40625 L 8.90625 -16.40625 C 9.1875 -16.40625 9.375 -16.34375 9.46875 -16.21875 C 9.570312 -16.09375 9.625 -15.914062 9.625 -15.6875 L 9.625 -13.671875 C 9.625 -13.453125 9.570312 -13.273438 9.46875 -13.140625 C 9.375 -13.003906 9.1875 -12.9375 8.90625 -12.9375 L 7.40625 -12.9375 L 7.40625 -3.421875 Z M 8.984375 -3.421875 "/></g></g></g><g fill="#272626" fill-opacity="1"><g transform="translate(221.899231, 194.999987)"><g><path d="M 14.046875 -9.15625 C 14.328125 -9.15625 14.515625 -9.09375 14.609375 -8.96875 C 14.710938 -8.84375 14.765625 -8.660156 14.765625 -8.421875 L 14.765625 -4.8125 C 14.710938 -3.914062 14.46875 -3.140625 14.03125 -2.484375 C 13.601562 -1.828125 13.054688 -1.289062 12.390625 -0.875 C 11.722656 -0.457031 11.007812 -0.144531 10.25 0.0625 C 9.5 0.269531 8.769531 0.375 8.0625 0.375 C 7.320312 0.375 6.5625 0.273438 5.78125 0.078125 C 5 -0.117188 4.269531 -0.429688 3.59375 -0.859375 C 2.925781 -1.285156 2.382812 -1.84375 1.96875 -2.53125 C 1.550781 -3.21875 1.34375 -4.050781 1.34375 -5.03125 L 1.34375 -11.171875 C 1.34375 -12.148438 1.550781 -12.992188 1.96875 -13.703125 C 2.382812 -14.421875 2.925781 -15.003906 3.59375 -15.453125 C 4.269531 -15.910156 5 -16.242188 5.78125 -16.453125 C 6.5625 -16.671875 7.320312 -16.78125 8.0625 -16.78125 C 8.84375 -16.78125 9.625 -16.664062 10.40625 -16.4375 C 11.195312 -16.21875 11.921875 -15.890625 12.578125 -15.453125 C 13.234375 -15.023438 13.757812 -14.488281 14.15625 -13.84375 C 14.5625 -13.207031 14.765625 -12.472656 14.765625 -11.640625 C 14.765625 -11.347656 14.710938 -11.160156 14.609375 -11.078125 C 14.515625 -10.992188 14.328125 -10.953125 14.046875 -10.953125 L 11.625 -10.953125 C 11.269531 -10.953125 11.078125 -11.050781 11.046875 -11.25 C 11.015625 -11.445312 10.960938 -11.628906 10.890625 -11.796875 C 10.765625 -12.179688 10.46875 -12.53125 10 -12.84375 C 9.53125 -13.15625 8.882812 -13.3125 8.0625 -13.3125 C 7.238281 -13.3125 6.570312 -13.0625 6.0625 -12.5625 C 5.5625 -12.070312 5.3125 -11.425781 5.3125 -10.625 L 5.3125 -5.609375 C 5.3125 -4.804688 5.5625 -4.1875 6.0625 -3.75 C 6.570312 -3.3125 7.238281 -3.09375 8.0625 -3.09375 C 8.875 -3.09375 9.535156 -3.296875 10.046875 -3.703125 C 10.566406 -4.109375 10.828125 -4.796875 10.828125 -5.765625 L 8.578125 -5.765625 C 8.296875 -5.765625 8.101562 -5.828125 8 -5.953125 C 7.90625 -6.085938 7.859375 -6.265625 7.859375 -6.484375 L 7.859375 -8.421875 C 7.859375 -8.660156 7.90625 -8.84375 8 -8.96875 C 8.101562 -9.09375 8.296875 -9.15625 8.578125 -9.15625 Z M 14.046875 -9.15625 "/></g></g></g><g fill="#272626" fill-opacity="1"><g transform="translate(241.899932, 194.999987)"><g><path d="M 14.4375 -16.40625 C 14.664062 -16.40625 14.84375 -16.351562 14.96875 -16.25 C 15.09375 -16.15625 15.15625 -15.96875 15.15625 -15.6875 L 15.15625 -0.71875 C 15.15625 -0.507812 15.101562 -0.335938 15 -0.203125 C 14.90625 -0.0664062 14.71875 0 14.4375 0 L 12.171875 0 C 11.859375 0 11.632812 -0.078125 11.5 -0.234375 C 11.363281 -0.390625 11.210938 -0.59375 11.046875 -0.84375 L 5.765625 -9.40625 L 5.765625 -0.71875 C 5.765625 -0.4375 5.703125 -0.242188 5.578125 -0.140625 C 5.453125 -0.046875 5.269531 0 5.03125 0 L 2.5625 0 C 2.351562 0 2.179688 -0.046875 2.046875 -0.140625 C 1.910156 -0.242188 1.84375 -0.4375 1.84375 -0.71875 L 1.84375 -15.6875 C 1.84375 -15.914062 1.890625 -16.09375 1.984375 -16.21875 C 2.085938 -16.34375 2.28125 -16.40625 2.5625 -16.40625 L 4.90625 -16.40625 C 5.226562 -16.40625 5.453125 -16.328125 5.578125 -16.171875 C 5.710938 -16.015625 5.863281 -15.8125 6.03125 -15.5625 L 11.328125 -7.03125 L 11.328125 -15.6875 C 11.328125 -15.96875 11.390625 -16.15625 11.515625 -16.25 C 11.648438 -16.351562 11.828125 -16.40625 12.046875 -16.40625 Z M 14.4375 -16.40625 "/></g></g></g><g fill="#272626" fill-opacity="1"><g transform="translate(273.447503, 194.999987)"><g><path d="M 14.734375 -5.265625 C 14.734375 -4.285156 14.523438 -3.4375 14.109375 -2.71875 C 13.691406 -2 13.148438 -1.410156 12.484375 -0.953125 C 11.828125 -0.503906 11.109375 -0.171875 10.328125 0.046875 C 9.546875 0.265625 8.78125 0.375 8.03125 0.375 C 7.28125 0.375 6.519531 0.265625 5.75 0.046875 C 4.976562 -0.171875 4.257812 -0.503906 3.59375 -0.953125 C 2.925781 -1.410156 2.390625 -2 1.984375 -2.71875 C 1.578125 -3.4375 1.375 -4.285156 1.375 -5.265625 L 1.375 -11.140625 C 1.375 -12.128906 1.578125 -12.976562 1.984375 -13.6875 C 2.390625 -14.40625 2.925781 -14.992188 3.59375 -15.453125 C 4.257812 -15.910156 4.976562 -16.242188 5.75 -16.453125 C 6.519531 -16.671875 7.28125 -16.78125 8.03125 -16.78125 C 8.78125 -16.78125 9.546875 -16.671875 10.328125 -16.453125 C 11.109375 -16.242188 11.828125 -15.910156 12.484375 -15.453125 C 13.148438 -14.992188 13.691406 -14.40625 14.109375 -13.6875 C 14.523438 -12.976562 14.734375 -12.128906 14.734375 -11.140625 Z M 10.828125 -10.796875 C 10.828125 -11.597656 10.566406 -12.21875 10.046875 -12.65625 C 9.535156 -13.09375 8.863281 -13.3125 8.03125 -13.3125 C 7.21875 -13.3125 6.550781 -13.09375 6.03125 -12.65625 C 5.519531 -12.21875 5.265625 -11.597656 5.265625 -10.796875 L 5.265625 -5.609375 C 5.265625 -4.804688 5.519531 -4.1875 6.03125 -3.75 C 6.550781 -3.3125 7.21875 -3.09375 8.03125 -3.09375 C 8.863281 -3.09375 9.535156 -3.3125 10.046875 -3.75 C 10.566406 -4.1875 10.828125 -4.804688 10.828125 -5.609375 Z M 10.828125 -10.796875 "/></g></g></g><g fill="#272626" fill-opacity="1"><g transform="translate(293.423255, 194.999987)"><g><path d="M 14.4375 -16.40625 C 14.664062 -16.40625 14.84375 -16.351562 14.96875 -16.25 C 15.09375 -16.15625 15.15625 -15.96875 15.15625 -15.6875 L 15.15625 -0.71875 C 15.15625 -0.507812 15.101562 -0.335938 15 -0.203125 C 14.90625 -0.0664062 14.71875 0 14.4375 0 L 12.171875 0 C 11.859375 0 11.632812 -0.078125 11.5 -0.234375 C 11.363281 -0.390625 11.210938 -0.59375 11.046875 -0.84375 L 5.765625 -9.40625 L 5.765625 -0.71875 C 5.765625 -0.4375 5.703125 -0.242188 5.578125 -0.140625 C 5.453125 -0.046875 5.269531 0 5.03125 0 L 2.5625 0 C 2.351562 0 2.179688 -0.046875 2.046875 -0.140625 C 1.910156 -0.242188 1.84375 -0.4375 1.84375 -0.71875 L 1.84375 -15.6875 C 1.84375 -15.914062 1.890625 -16.09375 1.984375 -16.21875 C 2.085938 -16.34375 2.28125 -16.40625 2.5625 -16.40625 L 4.90625 -16.40625 C 5.226562 -16.40625 5.453125 -16.328125 5.578125 -16.171875 C 5.710938 -16.015625 5.863281 -15.8125 6.03125 -15.5625 L 11.328125 -7.03125 L 11.328125 -15.6875 C 11.328125 -15.96875 11.390625 -16.15625 11.515625 -16.25 C 11.648438 -16.351562 11.828125 -16.40625 12.046875 -16.40625 Z M 14.4375 -16.40625 "/></g></g></g></svg>